<svg width="70" height="71" viewBox="0 0 70 71" fill="none" xmlns="http://www.w3.org/2000/svg">
<g id="bi:linkedin" clip-path="url(#clip0_78_22)">
<path id="Vector" d="M0 5.08538C0 2.27644 2.30125 0 5.14062 0H64.8594C67.6987 0 70 2.27644 70 5.08538V65.9146C70 68.7236 67.6987 71 64.8594 71H5.14062C2.30125 71 0 68.7236 0 65.9146V5.08538ZM21.6256 59.4359V27.3749H11.1213V59.4359H21.6256ZM16.3756 22.9951C20.0375 22.9951 22.3169 20.5368 22.3169 17.4571C22.2512 14.3109 20.0419 11.9191 16.4456 11.9191C12.8494 11.9191 10.5 14.3154 10.5 17.4571C10.5 20.5368 12.7794 22.9951 16.3056 22.9951H16.3756ZM37.8481 59.4359V41.5306C37.8481 40.5721 37.9181 39.6136 38.1981 38.9302C38.955 37.0176 40.6831 35.0341 43.5881 35.0341C47.39 35.0341 48.9081 37.9717 48.9081 42.2849V59.4359H59.4125V41.0469C59.4125 31.1956 54.2325 26.6161 47.32 26.6161C41.7463 26.6161 39.2481 29.7224 37.8481 31.9101V32.021H37.7781C37.8014 31.984 37.8247 31.947 37.8481 31.9101V27.3749H27.3481C27.4794 30.3836 27.3481 59.4359 27.3481 59.4359H37.8481Z" fill="black"/>
</g>
<defs>
<clipPath id="clip0_78_22">
<rect width="70" height="71" fill="white"/>
</clipPath>
</defs>
</svg>
