<svg width="278" height="81" viewBox="0 0 278 81" fill="none" xmlns="http://www.w3.org/2000/svg">
<circle cx="240" cy="78" r="2.5" fill="white" stroke="#4579AD"/>
<line x1="45" y1="78.5" x2="237" y2="78.5" stroke="#4579AD"/>
<circle cx="42" cy="78" r="2.5" fill="white" stroke="#4579AD"/>
<circle cx="273" cy="64" r="4" fill="white" stroke="#4579AD" stroke-width="2"/>
<line x1="8" y1="65" x2="268" y2="65" stroke="#4579AD" stroke-width="2"/>
<circle cx="6" cy="66" r="4" fill="white" stroke="#4579AD" stroke-width="2"/>
<path d="M27.7368 39.372H34.5738C34.5738 44.1773 33.3725 47.8697 30.9698 50.449C28.5671 53.0283 25.1751 54.318 20.7938 54.318C11.1478 54.318 6.32481 48.647 6.32481 37.305V34.125C6.32481 25.1857 8.79815 19.5853 13.7448 17.324C15.6881 16.4053 18.0378 15.946 20.7938 15.946C24.8218 15.946 28.0901 17.059 30.5988 19.285C33.1428 21.4757 34.4148 24.6557 34.4148 28.825H27.5248C27.1361 26.7403 26.4471 25.168 25.4578 24.108C24.4685 23.048 22.9138 22.518 20.7938 22.518C18.3205 22.518 16.4831 23.2953 15.2818 24.85C14.4338 25.9453 13.9391 27.818 13.7978 30.468C13.7271 31.316 13.6918 32.4643 13.6918 33.913V37.199C13.6918 41.2623 14.2571 44.036 15.3878 45.52C16.5538 47.004 18.3558 47.746 20.7938 47.746C23.2671 47.746 24.9631 47.0747 25.8818 45.732C26.8358 44.354 27.4541 42.234 27.7368 39.372ZM56.6972 40.326V37.57C56.6972 34.9553 56.3085 32.959 55.5312 31.581C54.7892 30.203 53.2168 29.514 50.8142 29.514C46.9275 29.514 44.9842 32.1287 44.9842 37.358V40.114C44.9842 45.732 46.9275 48.541 50.8142 48.541C53.3228 48.541 54.9658 47.6047 55.7432 45.732C56.3792 44.248 56.6972 42.446 56.6972 40.326ZM63.5872 38.736C63.5872 45.2727 62.3505 49.654 59.8772 51.88C57.7925 53.788 54.7715 54.742 50.8142 54.742C45.7615 54.742 42.3518 53.258 40.5852 50.29C38.9245 47.5693 38.0942 43.718 38.0942 38.736C38.0942 34.072 38.9245 30.415 40.5852 27.765C42.4225 24.797 45.7615 23.313 50.6022 23.313C55.4782 23.313 58.8525 24.6203 60.7252 27.235C62.6332 29.8143 63.5872 33.648 63.5872 38.736ZM92.5765 54H85.6865V34.655C85.6865 32.9237 85.3332 31.74 84.6265 31.104C83.9198 30.468 82.9305 30.15 81.6585 30.15L75.4575 32.747V54H68.5675V23.737H73.7085L75.2985 27.341L83.7785 23.419C86.1459 23.419 88.1952 24.3023 89.9265 26.069C91.6932 27.8003 92.5765 30.3443 92.5765 33.701V54ZM122.163 40.485H104.514C104.514 43.241 104.938 45.255 105.786 46.527C106.67 47.799 108.419 48.435 111.033 48.435C112.729 48.435 113.984 47.905 114.796 46.845C115.609 45.7497 116.015 44.7073 116.015 43.718H122.216C122.216 47.4987 121.192 50.2723 119.142 52.039C117.128 53.8057 114.443 54.689 111.086 54.689C107.765 54.689 105.186 54.212 103.348 53.258C99.5677 51.3147 97.6774 46.156 97.6774 37.782C97.6774 32.8 98.755 29.1607 100.91 26.864C103.066 24.532 106.352 23.366 110.768 23.366C118.436 23.366 122.269 27.6237 122.269 36.139C122.269 37.0577 122.234 38.5063 122.163 40.485ZM104.673 35.768H116.015C116.015 33.436 115.574 31.74 114.69 30.68C113.807 29.62 112.447 29.09 110.609 29.09C108.807 29.09 107.359 29.6377 106.263 30.733C105.203 31.793 104.673 33.4713 104.673 35.768ZM143.991 42.923L150.245 42.87C150.21 43.1527 150.175 43.665 150.139 44.407C150.104 45.149 150.069 45.6613 150.033 45.944C150.033 46.1913 149.998 46.5977 149.927 47.163C149.857 47.7283 149.768 48.1523 149.662 48.435C149.592 48.6823 149.486 49.018 149.344 49.442C148.708 51.2793 146.977 52.728 144.15 53.788C142.348 54.424 140.458 54.742 138.479 54.742C136.536 54.742 134.769 54.424 133.179 53.788C131.589 53.152 130.335 52.3393 129.416 51.35C127.332 49.1593 126.289 45.0607 126.289 39.054C126.289 33.012 127.332 28.8957 129.416 26.705C130.335 25.7157 131.589 24.903 133.179 24.267C134.769 23.631 136.536 23.313 138.479 23.313C142.295 23.313 145.193 24.267 147.171 26.175C149.15 28.083 150.139 30.733 150.139 34.125H143.885C143.885 32.5703 143.497 31.422 142.719 30.68C141.942 29.9027 140.493 29.514 138.373 29.514C136.289 29.514 134.893 30.1677 134.186 31.475C133.515 32.7823 133.179 34.7433 133.179 37.358V40.114C133.179 44.3187 133.992 46.898 135.617 47.852C136.359 48.3113 137.331 48.541 138.532 48.541C139.734 48.541 140.705 48.435 141.447 48.223C142.225 47.9757 142.772 47.5693 143.09 47.004C143.444 46.4387 143.673 45.891 143.779 45.361C143.885 44.7957 143.956 43.983 143.991 42.923ZM168.931 54H164.638C162.023 54 160.027 53.2227 158.649 51.668C157.306 50.1133 156.635 48.2583 156.635 46.103V30.203H153.72V24.956H156.635V19.02H163.525V24.956H168.401V30.203H163.525V45.679C163.525 47.3397 164.32 48.17 165.91 48.17H168.931V54ZM200.019 54H186.663C182.423 54 179.437 53.2757 177.706 51.827C176.01 50.343 175.162 47.746 175.162 44.036V16.264H200.019V22.836H182.529V31.687H194.772L194.242 38.259H182.529V43.506C182.529 44.99 182.864 46.0147 183.536 46.58C184.207 47.1453 185.426 47.428 187.193 47.428H200.019V54ZM213.347 54L206.457 54.053V14.144H213.347V54ZM241.577 54H236.966L234.846 50.343L227.479 54.318C223.38 54.318 220.624 52.834 219.211 49.866C218.504 48.4173 218.01 46.8627 217.727 45.202C217.48 43.506 217.356 41.757 217.356 39.955C217.356 38.1177 217.374 36.775 217.409 35.927C217.444 35.0437 217.533 34.0367 217.674 32.906C217.815 31.74 218.01 30.7683 218.257 29.991C218.54 29.2137 218.928 28.4187 219.423 27.606C219.918 26.758 220.518 26.0867 221.225 25.592C222.815 24.4967 224.882 23.949 227.426 23.949H234.687L241.577 23.525V54ZM234.687 44.354V30.15H229.44C227.497 30.15 226.136 30.892 225.359 32.376C224.617 33.86 224.246 36.086 224.246 39.054C224.246 41.9867 224.599 44.0537 225.306 45.255C226.048 46.4563 227.426 47.057 229.44 47.057L234.687 44.354ZM269.835 45.626V46.421C269.623 49.071 268.493 51.0673 266.443 52.41C264.429 53.7527 261.903 54.424 258.864 54.424C254.377 54.424 251.232 53.6113 249.43 51.986C247.77 50.502 246.939 48.3113 246.939 45.414V44.778H253.193C253.193 46.4033 253.617 47.5163 254.465 48.117C255.313 48.7177 256.78 49.018 258.864 49.018C261.691 49.018 263.104 47.9933 263.104 45.944C263.104 44.248 262.61 43.1173 261.62 42.552C261.161 42.2693 260.578 42.0573 259.871 41.916L254.518 41.015C249.854 40.273 247.522 37.358 247.522 32.27C247.522 29.4433 248.547 27.2527 250.596 25.698C252.681 24.108 255.313 23.313 258.493 23.313C265.737 23.313 269.358 26.44 269.358 32.694V33.383H263.369C263.299 31.7223 262.857 30.5917 262.044 29.991C261.232 29.3903 260.083 29.09 258.599 29.09C257.151 29.09 256.055 29.3903 255.313 29.991C254.571 30.5563 254.2 31.1923 254.2 31.899C254.2 33.913 255.013 35.0613 256.638 35.344L263.051 36.51C267.574 37.358 269.835 40.3967 269.835 45.626Z" fill="url(#paint0_linear_44_65)"/>
<defs>
<linearGradient id="paint0_linear_44_65" x1="138" y1="0" x2="138" y2="59" gradientUnits="userSpaceOnUse">
<stop stop-color="#50428C"/>
<stop offset="0.348958" stop-color="#475999"/>
<stop offset="0.661458" stop-color="#3B7AAD"/>
<stop offset="1" stop-color="#3291BB"/>
</linearGradient>
</defs>
</svg>
