<svg width="72" height="47" viewBox="0 0 72 47" fill="none" xmlns="http://www.w3.org/2000/svg">
<path d="M16.3637 46.7687V22.6818L7.73634 15.8478L0 12.0554V42.518C0 44.8699 2.20078 46.7687 4.90922 46.7687H16.3637Z" fill="#4285F4"/>
<path d="M55.6364 46.7687H67.0908C69.8074 46.7687 72 44.8628 72 42.518V12.0556L63.2374 16.3993L55.6364 22.6818V46.7687Z" fill="#34A853"/>
<path d="M16.3636 22.6818L15.1897 13.2703L16.3636 4.26263L35.9999 17.0145L55.6363 4.26263L56.9494 12.784L55.6363 22.6818L35.9999 35.4336L16.3636 22.6818Z" fill="#EA4335"/>
<path d="M55.6364 4.26263V22.6818L72 12.0554V6.38786C72 1.13141 65.07 -1.86514 60.2185 1.28727L55.6364 4.26263Z" fill="#FBBC04"/>
<path d="M0 12.0554L7.52597 16.9429L16.3637 22.6818V4.26267L11.7816 1.2873C6.92156 -1.86535 0 1.13145 0 6.38765V12.0552V12.0554Z" fill="#C5221F"/>
</svg>
