<svg width="85" height="99" viewBox="0 0 85 99" fill="none" xmlns="http://www.w3.org/2000/svg">
<g id="uis:bag">
<path id="Vector" d="M67.2916 24.75H56.6666V20.625C56.6666 16.0875 53.4791 12.375 49.5833 12.375H35.4166C31.5208 12.375 28.3333 16.0875 28.3333 20.625V24.75H17.7083C11.6874 24.75 7.08325 30.1125 7.08325 37.125V74.25C7.08325 81.2625 11.6874 86.625 17.7083 86.625H67.2916C73.3124 86.625 77.9166 81.2625 77.9166 74.25V37.125C77.9166 30.1125 73.3124 24.75 67.2916 24.75ZM35.4166 20.625H49.5833V24.75H35.4166V20.625ZM70.8333 74.25C70.8333 76.725 69.4166 78.375 67.2916 78.375H17.7083C15.5833 78.375 14.1666 76.725 14.1666 74.25V51.15L30.8124 57.75H53.1249C53.4791 57.75 53.8333 57.75 54.1874 57.3375L70.8333 50.7375V74.25Z" fill="black"/>
<path id="Vector_2" d="M28.3333 72.9193L60.2083 56.4193L28.3333 39.9193" stroke="#3291BB" stroke-width="8" stroke-linecap="round" stroke-linejoin="round"/>
</g>
</svg>
