<svg width="68" height="77" viewBox="0 0 68 77" fill="none" xmlns="http://www.w3.org/2000/svg">
<path id="Vector" d="M47.7778 34.0625V47.375M47.7778 34.0625H53.9881C57.839 34.0625 59.7644 34.0625 61.2352 33.0951C62.5338 32.2476 63.5878 30.8852 64.2491 29.2123C65 27.3175 65 24.8369 65 19.8758V17.1867C65 12.2256 65 9.74056 64.2491 7.84575C63.5876 6.17539 62.5325 4.81773 61.2352 3.96737C59.7644 3 57.8356 3 53.9778 3H41.5778C37.72 3 35.7911 3 34.3169 3.96737C33.0206 4.81799 31.9667 6.1757 31.3064 7.84575C30.5556 9.745 30.5556 12.23 30.5556 17.2V19.8625C30.5556 24.8325 30.5556 27.3175 31.3064 29.2123C31.9678 30.8852 33.0218 32.2476 34.3169 33.0951C35.7877 34.0625 37.7166 34.0625 41.5674 34.0625H47.7778ZM16.7778 25.1875L9.88889 34.0625L3 25.1875M3 11.875L9.88889 3L16.7778 11.875M3 74V66.0125C3 61.0425 3 58.5575 3.75089 56.6582C4.41222 54.9853 5.46278 53.6319 6.76133 52.7799C8.23556 51.8125 10.1644 51.8125 14.0222 51.8125H53.9778C57.8356 51.8125 59.7644 51.8125 61.2352 52.7799C62.5338 53.6319 63.5878 54.9853 64.2491 56.6582C65 58.5531 65 61.0381 65 65.9992V74" stroke="black" stroke-width="6" stroke-linecap="round" stroke-linejoin="round"/>
</svg>
